{"title":"WSOF 23 Preliminary Fights 720p WEB-DL x264 - TX -={SPARROW}=-","uid":12450342,"size":3843823756,"categoryP":"video","categoryS":"hd___tv_shows","magnet":"?xt=urn:btih:ed8967124aeff6fb702c791d03c34911be38ecdc&amp;dn=WSOF+23+Preliminary+Fights+720p+WEB-DL+x264+-+TX+-%3D%7BSPARROW%7D%3D-&amp;tr=udp%3A%2F%2Ftracker.openbittorrent.com%3A80&amp;tr=udp%3A%2F%2Fopen.demonii.com%3A1337&amp;tr=udp%3A%2F%2Ftracker.coppersurfer.tk%3A6969&amp;tr=udp%3A%2F%2Fexodus.desync.com%3A6969","seeders":10,"leechers":1,"uploader":"CenaCme","files":2,"time":1442675477,"description":"WSOF 23 Preliminary Fights 720p WEB-DL x264 - TX\n\n\nMiddleweight: Vagab Vagabov vs. Brian Grinnell\nMiddleweight: Clifford Starks vs. Krasimir Mladenov\nLightweight: Estevan Payan vs. Kamuela Kirk\nWelterweight: Matthew Frincu vs. Danny Davis Jr.\nBantamweight: Andres Ponce vs. David Nuzzo\nBantamweight: Randy Steinke vs. Joey Miolla\nLightweight: Benny Madrid vs. Jeff Fletcher\n\n\nVideo\nID                                       : 1\nFormat                                   : AVC\nFormat/Info                              : Advanced Video Codec\nFormat profile                           : &lt;a class=&quot;__cf_email__&quot; href=&quot;/cdn-cgi/l/email-protection&quot; data-cfemail=&quot;5a12333d321a1669746b&quot;&gt;[email&amp;#160;protected]&lt;/a&gt;&lt;script data-cfhash='f9e31' type=&quot;text/javascript&quot;&gt;\n/* &lt;![CDATA[ */!function(){try{var t=&quot;currentScript&quot;in document?document.currentScript:function(){for(var t=document.getElementsByTagName(&quot;script&quot;),e=t.length;e--;)if(t[e].getAttribute(&quot;data-cfhash&quot;))return t[e]}();if(t&amp;&amp;t.previousSibling){var e,r,n,i,c=t.previousSibling,a=c.getAttribute(&quot;data-cfemail&quot;);if(a){for(e=&quot;&quot;,r=parseInt(a.substr(0,2),16),n=2;a.length-n;n+=2)i=parseInt(a.substr(n,2),16)^r,e+=String.fromCharCode(i);e=document.createTextNode(e),c.parentNode.replaceChild(e,c)}t.parentNode.removeChild(t);}}catch(u){}}()/* ]]&gt; */&lt;/script&gt;\nFormat settings, CABAC                   : Yes\nFormat settings, ReFrames                : 1 frame\nFormat settings, GOP                     : M=1, N=60\nCodec ID                                 : avc1\nCodec ID/Info                            : Advanced Video Coding\nDuration                                 : 2h 47mn\nBit rate                                 : 2 873 Kbps\nMaximum bit rate                         : 5 686 Kbps\nWidth                                    : 1 280 pixels\nHeight                                   : 720 pixels\nDisplay aspect ratio                     : 16:9\nFrame rate mode                          : Constant\nFrame rate                               : 29.970 fps\nColor space                              : YUV\nChroma subsampling                       : 4:2:0\nBit depth                                : 8 bits\nScan type                                : Progressive\nBits/(Pixel*Frame)                       : 0.104\nStream size                              : 3.35 GiB (94%)\n\n\nAudio\nID                                       : 2\nFormat                                   : AAC\nFormat/Info                              : Advanced Audio Codec\nFormat profile                           : LC\nCodec ID                                 : 40\nDuration                                 : 2h 47mn\nBit rate mode                            : Variable\nBit rate                                 : 192 Kbps\nMaximum bit rate                         : 202 Kbps\nChannel(s)                               : 2 channels\nChannel positions                        : Front: L R\nSampling rate                            : 44.1 KHz\nCompression mode                         : Lossy\nStream size                              : 229 MiB (6%)\n\n\nScreens:\n &lt;a href=&quot;\nhttp://imgsparrow.co/image/8Y5&quot; rel=&quot;nofollow&quot; target=&quot;_NEW&quot;&gt;\nhttp://imgsparrow.co/image/8Y5&lt;/a&gt;","torrent":{"xt":"urn:btih:ed8967124aeff6fb702c791d03c34911be38ecdc","amp;dn":"WSOF+23+Preliminary+Fights+720p+WEB-DL+x264+-+TX+-%3D%7BSPARROW%7D%3D-","amp;tr":["udp%3A%2F%2Ftracker.openbittorrent.com%3A80","udp%3A%2F%2Fopen.demonii.com%3A1337","udp%3A%2F%2Ftracker.coppersurfer.tk%3A6969","udp%3A%2F%2Fexodus.desync.com%3A6969"],"infoHash":"ed8967124aeff6fb702c791d03c34911be38ecdc","infoHashBuffer":{"type":"Buffer","data":[237,137,103,18,74,239,246,251,112,44,121,29,3,195,73,17,190,56,236,220]},"announce":[],"urlList":[]}}